#!OML:ASF I:\Actors\actors\Patient Classification 2\Patient 1\Session 1\actor1.ASF
:FULLY-SPECIFIED
:DEGREES
736
root -0.725248 17.9322 5.91909 -4.72684 -5.02531 -4.26734
lowerback 10.9726 -1.41213 2.21603
upperback 1.932 -1.56821 1.12712
thorax -4.16001 -0.800935 0.151203
lowerneck -8.0913 -7.16892 -10.6538
upperneck 22.2412 -8.39969 0.800904
head 8.80867 -4.7745 1.1579
rclavicle 3.89245e-014 -3.97569e-016
rhumerus -28.683 9.9761 -92.3551
rradius 120.732
rwrist -40.2163
rhand -16.2526 -40.1324
rfingers 7.12502
rthumb 9.95647 -69.8769
lclavicle 3.89245e-014 -3.97569e-016
lhumerus -18.5564 -43.7459 105.923
lradius 102.727
lwrist 41.6322
lhand -15.6672 -12.1486
lfingers 7.12502
lthumb 10.5212 17.568
rfemur 21.9634 1.28609 19.3173
rtibia -14.4228
rfoot -8.99049 -12.4464
rtoes 0.962083
lfemur 27.1451 2.60651 -12.619
ltibia -25.1695
lfoot 2.62931 17.6083
ltoes -15.496
737
root -0.76412 17.9415 5.92544 -4.74595 -4.88703 -3.84351
lowerback 11.1566 -1.36604 1.7999
upperback 1.53684 -1.54014 1.17027
thorax -4.66278 -0.783937 0.437705
lowerneck -7.99773 -7.30126 -10.5373
upperneck 22.497 -8.69349 1.10322
head 8.90309 -4.88106 1.20689
rclavicle 5.3734e-015 -2.25621e-014
rhumerus -28.4697 9.87931 -92.7528
rradius 120.23
rwrist -40.1777
rhand -16.563 -39.7738
rfingers 7.12502
rthumb 9.65696 -69.5324
lclavicle 5.3734e-015 -2.25621e-014
lhumerus -18.1906 -43.9651 106.323
lradius 102.228
lwrist 42.7472
lhand -16.2859 -11.5758
lfingers 7.12502
lthumb 9.92437 18.1702
rfemur 21.8362 1.9743 19.1718
rtibia -14.0843
rfoot -9.72065 -12.9456
rtoes 1.5425
lfemur 26.9601 2.66685 -12.933
ltibia -24.9785
lfoot 2.58301 17.5125
ltoes -15.2793
738
root -0.785633 17.9488 5.93003 -4.81267 -4.65387 -3.6734
lowerback 11.1203 -1.41838 1.74258
upperback 1.3723 -1.60666 1.31809
thorax -4.80965 -0.815408 0.636342
lowerneck -7.95137 -7.42185 -10.4356
upperneck 22.5848 -8.93948 1.31439
head 8.94306 -4.97033 1.23376
rclavicle -3.32887e-015 -2.23136e-014
rhumerus -27.9985 9.7252 -93.0614
rradius 119.734
rwrist -40.3873
rhand -17.1915 -36.5115
rfingers 7.12502
rthumb 9.05055 -66.2973
lclavicle -3.32887e-015 -2.23136e-014
lhumerus -17.6205 -44.0988 106.673
lradius 101.729
lwrist 43.8679
lhand -17.0614 -11.1412
lfingers 7.12502
lthumb 9.1761 18.6391
rfemur 21.8031 2.22313 19.1533
rtibia -13.7767
rfoot -10.2164 -13.2134
rtoes 1.83251
lfemur 26.8373 2.57516 -13.0453
ltibia -24.7318
lfoot 2.50563 17.4222
ltoes -15.1307
739
root -0.797728 17.9549 5.93644 -4.91824 -4.39114 -3.57865
lowerback 10.9522 -1.5573 1.87361
upperback 1.34779 -1.77186 1.47365
thorax -4.74149 -0.89807 0.745485
lowerneck -8.02609 -7.49803 -10.4319
upperneck 22.6837 -9.10479 1.57701
head 9.01255 -5.02313 1.29771
rclavicle -4.87022e-015 3.72721e-015
rhumerus -27.5679 9.59407 -93.4283
rradius 119.309
rwrist -40.7088
rhand -17.2382 -35.6793
rfingers 7.12502
rthumb 9.00548 -65.4671
lclavicle -4.87022e-015 3.72721e-015
lhumerus -17.0865 -44.114 106.974
lradius 101.307
lwrist 44.9279
lhand -17.8065 -10.7684
lfingers 7.12502
lthumb 8.45704 19.0423
rfemur 21.9003 2.20958 19.1198
rtibia -13.6045
rfoot -10.5017 -13.313
rtoes 1.93698
lfemur 26.7338 2.32817 -13.1381
ltibia -24.3502
lfoot 2.27014 17.375
ltoes -14.9534
740
root -0.811027 17.9598 5.94214 -5.01091 -4.15172 -3.49579
lowerback 10.7842 -1.69786 2.02543
upperback 1.36057 -1.93756 1.64771
thorax -4.63417 -0.981072 0.860634
lowerneck -8.12345 -7.55396 -10.5397
upperneck 22.7748 -9.23537 1.90506
head 9.09151 -5.06142 1.40449
rclavicle 1.6319e-014 1.75924e-014
rhumerus -27.3277 9.46329 -93.8398
rradius 118.999
rwrist -40.8674
rhand -17.3315 -35.715
rfingers 7.12502
rthumb 8.91544 -65.5066
lclavicle 1.6319e-014 1.75924e-014
lhumerus -16.696 -44.1139 107.33
lradius 100.985
lwrist 46.1344
lhand -18.6787 -10.4802
lfingers 7.12502
lthumb 7.61524 19.3627
rfemur 21.8762 2.22912 19.11
rtibia -13.2296
rfoot -10.917 -13.3288
rtoes 2.09662
lfemur 26.6482 2.03395 -13.2281
ltibia -24.0192
lfoot 1.99903 17.3617
ltoes -15.0698
741
root -0.825422 17.9647 5.94735 -5.02111 -3.96241 -3.48745
lowerback 10.5748 -1.80871 2.25394
upperback 1.37147 -2.05553 1.86297
thorax -4.50672 -1.04149 0.966449
lowerneck -8.27102 -7.6482 -10.6579
upperneck 22.9229 -9.39289 2.14518
head 9.1993 -5.12131 1.47699
rclavicle 3.86698e-014 1.59028e-015
rhumerus -27.2668 9.12957 -94.3006
rradius 118.902
rwrist -40.7651
rhand -17.1077 -35.6694
rfingers 7.12502
rthumb 9.13137 -65.4517
lclavicle 3.86698e-014 1.59028e-015
lhumerus -16.4074 -44.2302 107.764
lradius 100.754
lwrist 47.4022
lhand -19.8641 -10.135
lfingers 7.12502
lthumb 6.47096 19.7462
rfemur 21.7264 2.29339 19.1959
rtibia -12.8001
rfoot -11.3233 -13.3506
rtoes 2.06067
lfemur 26.4821 1.76636 -13.2334
ltibia -23.6902
lfoot 1.71372 17.4052
ltoes -15.2407
742
root -0.839319 17.9708 5.9553 -4.95302 -3.81436 -3.47081
lowerback 10.2671 -1.90503 2.51852
upperback 1.37557 -2.15786 2.03307
thorax -4.33475 -1.09487 0.998439
lowerneck -8.46001 -7.7655 -10.6452
upperneck 23.1835 -9.56817 2.2307
head 9.34131 -5.19451 1.47099
rclavicle -2.06115e-014 1.11319e-014
rhumerus -26.684 9.19896 -94.4851
rradius 118.338
rwrist -40.7438
rhand -16.8397 -36.6876
rfingers 7.12502
rthumb 9.39 -66.4584
lclavicle -2.06115e-014 1.11319e-014
lhumerus -16.1965 -44.462 108.178
lradius 100.522
lwrist 48.4724
lhand -20.8375 -9.75878
lfingers 7.12502
lthumb 5.53121 20.149
rfemur 21.5131 2.34166 19.2558
rtibia -12.4042
rfoot -11.6329 -13.3445
rtoes 1.92069
lfemur 26.254 1.53959 -13.2482
ltibia -23.3675
lfoot 1.44947 17.4859
ltoes -14.9754
743
root -0.853467 17.978 5.96305 -4.83757 -3.69802 -3.37902
lowerback 9.94109 -1.98936 2.70916
upperback 1.35391 -2.25681 2.15615
thorax -4.17881 -1.14567 1.02143
lowerneck -8.5586 -7.83712 -10.6172
upperneck 23.4589 -9.69724 2.32801
head 9.4687 -5.24487 1.47574
rclavicle 2.61402e-014 -2.70347e-014
rhumerus -26.3858 9.18365 -94.8369
rradius 118
rwrist -40.6824
rhand -16.4986 -40.0893
rfingers 7.12502
rthumb 9.71916 -69.8451
lclavicle 2.61402e-014 -2.70347e-014
lhumerus -15.9878 -44.4837 108.491
lradius 100.411
lwrist 50.0162
lhand -20.9984 -8.98741
lfingers 7.12502
lthumb 5.37587 20.9244
rfemur 21.2561 2.42625 19.2352
rtibia -12.0332
rfoot -11.9352 -13.3421
rtoes 1.82944
lfemur 25.9934 1.40186 -13.3297
ltibia -23.0807
lfoot 1.27319 17.4738
ltoes -14.3125
744
root -0.868271 17.9848 5.96831 -4.72103 -3.62784 -3.28468
lowerback 9.67436 -2.0652 2.8444
upperback 1.31635 -2.34745 2.31118
thorax -4.06892 -1.19148 1.10947
lowerneck -8.49633 -7.87459 -10.7072
upperneck 23.6346 -9.79306 2.50472
head 9.54028 -5.28259 1.53824
rclavicle 1.54804e-014 -2.8625e-014
rhumerus -26.288 9.19557 -95.1959
rradius 117.816
rwrist -40.7282
rhand -17.1912 -36.4759
rfingers 7.12502
rthumb 9.0508 -66.2617
lclavicle 1.54804e-014 -2.8625e-014
lhumerus -15.9613 -44.7532 108.949
lradius 100.302
lwrist 50.4402
lhand -21.7206 -8.40626
lfingers 7.12502
lthumb 4.67857 21.5221
rfemur 21.0035 2.58266 19.2317
rtibia -11.7014
rfoot -12.2766 -13.3769
rtoes 1.8792
lfemur 25.7428 1.33099 -13.3962
ltibia -22.8307
lfoot 1.16932 17.4091
ltoes -13.8125
